HIERARCHY
ROOT Hips
{
	OFFSET 0.00000 0.00000 0.00000
	CHANNELS 6 Xposition Yposition Zposition Zrotation Yrotation Xrotation 
	JOINT LHipJoint
	{
		OFFSET 0 0 0
		CHANNELS 3 Zrotation Yrotation Xrotation
		JOINT LeftUpLeg
		{
			OFFSET 1.54859 -1.61379 0.86856
			CHANNELS 3 Zrotation Yrotation Xrotation
			JOINT LeftLeg
			{
				OFFSET 2.25087 -6.18423 0.00000
				CHANNELS 3 Zrotation Yrotation Xrotation
				JOINT LeftFoot
				{
					OFFSET 2.40328 -6.60297 0.00000
					CHANNELS 3 Zrotation Yrotation Xrotation
					JOINT LeftToeBase
					{
						OFFSET 0.17435 -0.47901 2.02453
						CHANNELS 3 Zrotation Yrotation Xrotation
						End Site
						{
							OFFSET 0.00000 -0.00000 1.04844
						}
					}
				}
			}
		}
	}
	JOINT RHipJoint
	{
		OFFSET 0 0 0
		CHANNELS 3 Zrotation Yrotation Xrotation
		JOINT RightUpLeg
		{
			OFFSET -1.54669 -1.61379 0.86856
			CHANNELS 3 Zrotation Yrotation Xrotation
			JOINT RightLeg
			{
				OFFSET -2.28132 -6.26789 0.00000
				CHANNELS 3 Zrotation Yrotation Xrotation
				JOINT RightFoot
				{
					OFFSET -2.51636 -6.91365 0.00000
					CHANNELS 3 Zrotation Yrotation Xrotation
					JOINT RightToeBase
					{
						OFFSET -0.15124 -0.41552 2.21090
						CHANNELS 3 Zrotation Yrotation Xrotation
						End Site
						{
							OFFSET -0.00000 -0.00000 1.13399
						}
					}
				}
			}
		}
	}
	JOINT LowerBack
	{
		OFFSET 0 0 0
		CHANNELS 3 Zrotation Yrotation Xrotation
		JOINT Spine
		{
			OFFSET -0.04287 2.26161 -0.25690
			CHANNELS 3 Zrotation Yrotation Xrotation
			JOINT Spine1
			{
				OFFSET 0.02248 2.28395 -0.10140
				CHANNELS 3 Zrotation Yrotation Xrotation
				JOINT Neck
				{
					OFFSET 0 0 0
					CHANNELS 3 Zrotation Yrotation Xrotation
					JOINT Neck1
					{
						OFFSET -0.11644 1.38496 0.11345
						CHANNELS 3 Zrotation Yrotation Xrotation
						JOINT Head
						{
							OFFSET 0.29383 1.36600 0.06642
							CHANNELS 3 Zrotation Yrotation Xrotation
							End Site
							{
								OFFSET 0.11075 1.41395 -0.00294
							}
						}
					}
				}
				JOINT LeftShoulder
				{
					OFFSET 0 0 0
					CHANNELS 3 Zrotation Yrotation Xrotation
					JOINT LeftArm
					{
						OFFSET 3.51628 0.59542 -0.30346
						CHANNELS 3 Zrotation Yrotation Xrotation
						JOINT LeftForeArm
						{
							OFFSET 4.76405 -0.00000 0.00000
							CHANNELS 3 Zrotation Yrotation Xrotation
							JOINT LeftHand
							{
								OFFSET 3.13759 -0.00000 -0.00000
								CHANNELS 3 Zrotation Yrotation Xrotation
								JOINT LeftFingerBase
								{
									OFFSET 0 0 0
									CHANNELS 3 Zrotation Yrotation Xrotation
									JOINT LeftHandIndex1
									{
										OFFSET 0.73226 -0.00000 -0.00000
										CHANNELS 3 Zrotation Yrotation Xrotation
										End Site
										{
											OFFSET 0.59037 -0.00000 -0.00000
										}
									}
								}
								JOINT LThumb
								{
									OFFSET 0 0 0
									CHANNELS 3 Zrotation Yrotation Xrotation
									End Site
									{
										OFFSET 0.59938 -0.00000 0.59938
									}
								}
							}
						}
					}
				}
				JOINT RightShoulder
				{
					OFFSET 0 0 0
					CHANNELS 3 Zrotation Yrotation Xrotation
					JOINT RightArm
					{
						OFFSET -3.30990 0.84213 -0.36430
						CHANNELS 3 Zrotation Yrotation Xrotation
						JOINT RightForeArm
						{
							OFFSET -5.10161 -0.00000 -0.00000
							CHANNELS 3 Zrotation Yrotation Xrotation
							JOINT RightHand
							{
								OFFSET -3.23267 -0.00000 -0.00000
								CHANNELS 3 Zrotation Yrotation Xrotation
								JOINT RightFingerBase
								{
									OFFSET 0 0 0
									CHANNELS 3 Zrotation Yrotation Xrotation
									JOINT RightHandIndex1
									{
										OFFSET -0.70200 -0.00000 -0.00000
										CHANNELS 3 Zrotation Yrotation Xrotation
										End Site
										{
											OFFSET -0.56597 -0.00000 -0.00000
										}
									}
								}
								JOINT RThumb
								{
									OFFSET 0 0 0
									CHANNELS 3 Zrotation Yrotation Xrotation
									End Site
									{
										OFFSET -0.57461 -0.00000 0.57461
									}
								}
							}
						}
					}
				}
			}
		}
	}
}
MOTION
Frames: 13
Frame Time: .0083333
5.5712 14.6851 -2.3294 0 0 0 0 0 0 -21 0 0 0 0 0 0 0 0 0 0 0 0 0 0 21 0 0 0 0 0 0 0 0 0 0 0 0 0 0 0 0 0 0 0 0 0 0 -16 0 0 21 0 0 11 0 0 0 -8 0 0 0 0 0 0 0 0 0 0 0 0 0 0 0 0 0 0 0 0 8 0 0 0 0 0 0 0 0 0 0 0 0 0 0 0 0 0
5.5712 14.6851 -2.3294 -166.7860 -82.9145 166.4760 0.0000 0.0000 0.0000 -12.2779 1.2638 -31.5430 10.8802 17.8760 62.3919 1.9022 -9.5793 -24.7498 0.6882 -5.3036 -14.7765 0.0000 0.0000 0.0000 16.8684 5.0067 -31.4120 -10.9926 -17.9315 62.7575 -1.8319 -5.7350 -28.1588 -0.5447 4.7283 -13.1353 -2.2737 1.1039 13.1631 0.7181 0.8604 6.6139 1.9148 0.2190 -0.4844 -17.2161 -7.4255 -3.2213 26.3293 -8.6266 -12.4167 11.1987 -4.7570 -0.7963 0.0000 -0.0000 0.0000 -3.5233 -59.2922 -10.7257 42.6579 -49.5681 -20.4400 -0.0000 0.0000 -0.0294 15.2515 19.7959 5.2758 -7.1250 0.0000 -0.0000 -13.0087 49.9876 -1.6237 0.0000 -0.0000 0.0000 6.7464 67.4000 -13.0836 -40.6833 48.4695 -18.9492 0.0000 -0.0000 -1.3007 -2.0408 24.6001 -0.8498 7.1250 -0.0000 -0.0000 16.6885 -6.2052 15.4744
5.5709 14.6870 -2.3292 -166.8900 -82.8453 166.5280 0.0000 0.0000 0.0000 -12.2843 1.3473 -31.4573 10.8592 17.8655 62.3235 1.8986 -9.5182 -24.7241 0.6738 -5.2488 -14.6195 0.0000 0.0000 0.0000 16.8817 5.0785 -31.3245 -10.9768 -17.9237 62.7061 -1.8211 -5.7831 -28.1132 -0.5486 4.7450 -13.1826 -2.3059 1.1192 13.1212 0.7469 0.8733 6.6970 1.9618 0.2197 -0.3762 -17.2544 -7.4516 -3.3058 26.2981 -8.6528 -12.4178 11.1883 -4.7626 -0.7765 -0.0000 0.0000 0.0000 -3.4827 -59.2406 -10.7788 42.6886 -49.5845 -20.4634 -0.0000 0.0000 -0.0352 15.2671 19.8421 5.2932 -7.1250 0.0000 -0.0000 -13.0111 50.0360 -1.6397 -0.0000 0.0000 0.0000 6.5154 67.4393 -13.2035 -40.7200 48.4907 -18.9767 0.0000 -0.0000 -1.3215 -1.5750 24.3384 -0.6492 7.1250 -0.0000 -0.0000 16.9717 -6.4868 15.6666
5.5708 14.6923 -2.3282 -167.7710 -82.8198 167.3880 0.0000 0.0000 0.0000 -12.4275 1.3850 -31.3734 10.8237 17.8477 62.2078 1.8913 -9.4173 -24.6732 0.6806 -5.2749 -14.6943 0.0000 0.0000 0.0000 16.7695 5.1133 -31.3004 -10.9660 -17.9184 62.6712 -1.8216 -5.7400 -28.0925 -0.5605 4.7955 -13.3263 -2.4312 1.1307 13.0613 0.7323 0.8721 6.7593 2.0182 0.2129 -0.2799 -17.2890 -7.4296 -3.2448 26.3356 -8.6072 -12.5947 11.2227 -4.7516 -0.8417 0.0000 -0.0000 0.0000 -3.4109 -59.2098 -10.8772 42.6424 -49.5598 -20.4282 -0.0000 -0.0000 0.0058 15.1986 19.8147 5.2615 -7.1250 0.0000 -0.0000 -13.0663 49.9981 -1.6345 0.0000 -0.0000 0.0000 6.3383 67.4664 -13.2859 -40.7664 48.5174 -19.0114 0.0000 -0.0000 -1.3711 -1.5131 24.2949 -0.6227 7.1250 -0.0000 -0.0000 17.0097 -6.5324 15.6894
5.5697 14.6987 -2.3270 -168.1660 -82.8345 167.8260 0.0000 0.0000 0.0000 -12.5053 1.3458 -31.3599 10.7958 17.8337 62.1165 1.8753 -9.4101 -24.5672 0.6485 -5.1513 -14.3407 0.0000 0.0000 0.0000 16.7054 5.0822 -31.3296 -10.9503 -17.9107 62.6201 -1.8255 -5.6714 -28.0811 -0.5605 4.7952 -13.3254 -2.5229 1.1136 12.9382 0.7527 0.8416 6.8092 2.0963 0.1923 -0.1612 -17.3188 -7.4169 -3.2422 26.3362 -8.5688 -12.7710 11.2397 -4.7395 -0.8982 0.0000 0.0000 0.0000 -3.3679 -59.1813 -11.0161 42.5883 -49.5308 -20.3870 -0.0000 -0.0000 0.0725 15.0938 19.7853 5.2163 -7.1250 0.0000 -0.0000 -13.1554 49.9526 -1.6311 0.0000 0.0000 0.0000 6.1220 67.5087 -13.3868 -40.8107 48.5430 -19.0446 0.0000 -0.0000 -1.4445 -1.6454 24.2952 -0.6772 7.1250 -0.0000 -0.0000 16.9309 -6.5235 15.6127
5.5692 14.7037 -2.3270 -167.9810 -82.8154 167.6470 0.0000 0.0000 0.0000 -12.4766 1.3559 -31.3290 10.7728 17.8221 62.0416 1.8621 -9.4717 -24.4815 0.5896 -4.9162 -13.6696 0.0000 0.0000 0.0000 16.7410 5.0810 -31.2968 -10.9273 -17.8993 62.5454 -1.8140 -5.7182 -28.0295 -0.5606 4.7956 -13.3266 -2.5076 1.1177 12.8631 0.7640 0.8481 6.8669 2.0993 0.1924 -0.0608 -17.2826 -7.4470 -3.2311 26.3180 -8.5953 -12.9260 11.2312 -4.7614 -0.9404 -0.0000 0.0000 0.0000 -3.3409 -59.1500 -11.0583 42.5951 -49.5344 -20.3922 -0.0000 -0.0000 0.1168 15.1448 19.6868 5.2098 -7.1250 0.0000 -0.0000 -13.0702 49.8627 -1.5909 -0.0000 0.0000 0.0000 5.9959 67.5083 -13.5284 -40.8314 48.5548 -19.0601 0.0000 -0.0000 -1.4503 -1.6126 24.2892 -0.6635 7.1250 -0.0000 -0.0000 16.9506 -6.5313 15.6299
5.5707 14.7041 -2.3266 -168.3960 -82.8185 168.0590 0.0000 0.0000 0.0000 -12.5418 1.3226 -31.2867 10.7542 17.8127 61.9806 1.8684 -9.4425 -24.5227 0.6031 -4.9712 -13.8264 0.0000 0.0000 0.0000 16.6804 5.0573 -31.2617 -10.9061 -17.8888 62.4762 -1.8015 -5.7543 -27.9645 -0.5641 4.8105 -13.3688 -2.5174 1.1423 12.8793 0.7129 0.8778 6.8716 2.0478 0.2077 -0.0656 -17.1969 -7.4895 -3.1073 26.2904 -8.6519 -13.0854 11.2130 -4.8059 -1.0001 0.0000 -0.0000 0.0000 -3.3731 -59.1560 -10.9500 42.6943 -49.5876 -20.4677 -0.0000 -0.0000 0.3001 15.1732 19.6713 5.2161 -7.1250 0.0000 -0.0000 -13.0373 49.8516 -1.5832 0.0000 -0.0000 0.0000 6.1009 67.4180 -13.4771 -40.8116 48.5435 -19.0453 0.0000 -0.0000 -1.3748 -1.3329 24.1922 -0.5463 7.1250 -0.0000 -0.0000 17.1198 -6.6421 15.7633
5.5725 14.7052 -2.3249 -168.0540 -82.8148 167.7480 0.0000 0.0000 0.0000 -12.5051 1.2720 -31.2860 10.7349 17.8029 61.9176 1.8711 -9.4336 -24.5400 0.6229 -5.0507 -14.0534 0.0000 0.0000 0.0000 16.7170 5.0180 -31.2550 -10.8817 -17.8767 62.3967 -1.8035 -5.6818 -27.9381 -0.5642 4.8110 -13.3702 -2.4391 1.1324 12.8666 0.7033 0.8733 6.8784 1.9944 0.2072 -0.0504 -17.1025 -7.5682 -3.1631 26.1660 -8.7654 -13.0318 11.1353 -4.8556 -0.9649 0.0000 0.0000 0.0000 -3.4132 -59.1604 -10.9498 42.8484 -49.6698 -20.5851 -0.0000 -0.0000 0.5658 15.0603 19.7532 5.1962 -7.1250 0.0000 -0.0000 -13.1754 49.9156 -1.6215 0.0000 0.0000 0.0000 6.1467 67.3758 -13.4136 -40.8009 48.5373 -19.0373 0.0000 -0.0000 -1.3426 -1.1435 24.1021 -0.4670 7.1250 -0.0000 -0.0000 17.2351 -6.7400 15.8460
5.5724 14.7116 -2.3221 -167.5790 -82.8121 167.3130 0.0000 0.0000 0.0000 -12.4566 1.2009 -31.2564 10.7088 17.7896 61.8321 1.8587 -9.5475 -24.4613 0.5445 -4.7277 -13.1335 0.0000 0.0000 0.0000 16.7703 4.9836 -31.2741 -10.8555 -17.8636 62.3114 -1.8088 -5.5957 -27.9269 -0.5563 4.7775 -13.2749 -2.3677 1.0970 12.7787 0.7103 0.8359 6.9106 1.9669 0.1884 0.0332 -16.8531 -7.6645 -3.4046 25.8363 -8.9112 -12.7889 10.9362 -4.9012 -0.8628 0.0000 0.0000 0.0000 -3.4054 -59.1075 -10.9920 42.8378 -49.6641 -20.5770 -0.0000 -0.0000 0.5345 15.0817 19.7298 5.1980 -7.1250 0.0000 -0.0000 -13.1463 49.8955 -1.6112 0.0000 0.0000 0.0000 6.0904 67.4157 -13.4489 -40.8010 48.5374 -19.0374 0.0000 -0.0000 -1.3601 -1.1138 24.1284 -0.4554 7.1250 -0.0000 -0.0000 17.2520 -6.7169 15.8713
5.5722 14.7184 -2.3196 -168.3450 -82.8515 168.0670 0.0000 0.0000 0.0000 -12.5962 1.1052 -31.1547 10.6780 17.7739 61.7314 1.8534 -9.5858 -24.4272 0.4958 -4.5146 -12.5290 0.0000 0.0000 0.0000 16.6468 4.8964 -31.2641 -10.8325 -17.8521 62.2363 -1.8066 -5.5418 -27.8823 -0.5495 4.7487 -13.1933 -2.4563 1.0961 12.7703 0.6744 0.8254 6.9068 1.9808 0.1818 0.0337 -16.6453 -7.7164 -3.5042 25.6017 -8.9965 -12.6473 10.7964 -4.9309 -0.8174 0.0000 0.0000 0.0000 -3.4968 -59.0503 -10.7866 42.7074 -49.5946 -20.4777 -0.0000 -0.0000 0.3019 15.2798 19.6681 5.2535 -7.1250 0.0000 -0.0000 -12.9345 49.8649 -1.5746 0.0000 0.0000 0.0000 6.1980 67.3920 -13.3240 -40.7657 48.5171 -19.0109 0.0000 -0.0000 -1.3969 -1.1315 24.1989 -0.4639 7.1250 -0.0000 -0.0000 17.2394 -6.6483 15.8824
5.5725 14.7232 -2.3203 -168.4620 -82.8404 168.1360 0.0000 0.0000 0.0000 -12.6118 1.1385 -31.0759 10.6504 17.7597 61.6411 1.8578 -9.4740 -24.4532 0.5641 -4.8104 -13.3686 0.0000 0.0000 0.0000 16.6414 4.8718 -31.1925 -10.8094 -17.8406 62.1611 -1.8040 -5.4846 -27.8332 -0.5446 4.7279 -13.1340 -2.4604 1.1118 12.8388 0.6601 0.8440 6.8846 1.9653 0.1924 -0.0271 -16.5737 -7.6122 -3.3709 25.5440 -8.8644 -12.6711 10.7822 -4.8732 -0.8842 0.0000 0.0000 0.0000 -3.6985 -58.9898 -10.4278 42.8008 -49.6444 -20.5488 -0.0000 -0.0000 0.0529 15.2868 19.9457 5.3267 -7.1250 0.0000 -0.0000 -13.0309 50.1421 -1.6766 0.0000 0.0000 0.0000 6.3746 67.3354 -13.1090 -40.7098 48.4848 -18.9690 0.0000 -0.0000 -1.4098 -1.3042 24.2718 -0.5362 7.1250 -0.0000 -0.0000 17.1346 -6.5679 15.8040
5.5737 14.7275 -2.3208 -167.7950 -82.7977 167.5070 0.0000 0.0000 0.0000 -12.5086 1.2273 -31.1247 10.6274 17.7479 61.5656 1.8568 -9.3820 -24.4436 0.6407 -5.1208 -14.2534 0.0000 0.0000 0.0000 16.7425 4.9447 -31.1994 -10.7881 -17.8298 62.0915 -1.8183 -5.3328 -27.8484 -0.5059 4.5594 -12.6561 -2.3648 1.1032 12.8513 0.6795 0.8459 6.8374 1.9312 0.1980 -0.0827 -16.7108 -7.6230 -3.1420 25.7333 -8.8798 -12.8370 10.8908 -4.9022 -0.9443 -0.0000 -0.0000 0.0000 -3.8034 -58.9365 -10.1786 43.0625 -49.7832 -20.7484 -0.0000 0.0000 -0.2654 15.0844 20.4730 5.3855 -7.1250 0.0000 -0.0000 -13.4267 50.6335 -1.8934 -0.0000 -0.0000 0.0000 6.4529 67.2752 -12.9214 -40.7024 48.4806 -18.9635 0.0000 -0.0000 -1.4096 -1.3685 24.2461 -0.5621 7.1250 -0.0000 -0.0000 17.0970 -6.5883 15.7588
5.5776 14.7322 -2.3195 -168.1540 -82.8012 167.9830 0.0000 0.0000 0.0000 -12.5692 1.2195 -31.2534 10.6067 17.7372 61.4976 1.8473 -9.3944 -24.3806 0.6401 -5.1185 -14.2470 0.0000 0.0000 0.0000 16.6815 4.9971 -31.3048 -10.7678 -17.8196 62.0252 -1.8254 -5.2695 -27.8621 -0.4841 4.4616 -12.3791 -2.4098 1.0964 12.8219 0.6757 0.8383 6.7613 1.9534 0.1974 -0.1468 -16.7474 -7.6552 -3.0342 25.7311 -8.9265 -12.9167 10.9011 -4.9322 -0.9732 -0.0000 0.0000 0.0000 -3.8125 -58.8816 -10.0924 43.1507 -49.8297 -20.8158 -0.0000 0.0000 -0.4358 14.9336 20.5013 5.3364 -7.1250 0.0000 -0.0000 -13.5828 50.6375 -1.9175 -0.0000 0.0000 0.0000 6.5237 67.2134 -12.7590 -40.7012 48.4799 -18.9626 0.0000 -0.0000 -1.4421 -1.5037 24.3747 -0.6207 7.1250 -0.0000 -0.0000 17.0132 -6.4568 15.7190
